<?xml version="1.0" encoding="UTF-8" standalone="no"?>
<!DOCTYPE svg PUBLIC "-//W3C//DTD SVG 1.1//EN" "http://www.w3.org/Graphics/SVG/1.1/DTD/svg11.dtd">
<svg version="1.1" xmlns="http://www.w3.org/2000/svg" xmlns:xlink="http://www.w3.org/1999/xlink" preserveAspectRatio="xMidYMid meet" viewBox="0 0 3300 3300" width="3300" height="3300"><defs><path d="M3644.1 3866L-4354.76 3866L-4354.76 -800L3644.1 -800L3644.1 3866" id="dtFPaNXgV"></path><path d="M-3569.69 1673C-3569.69 912.18 -2950.71 293.2 -2189.89 293.2C-1429.06 293.2 -810.08 912.18 -810.08 1673C-810.08 2433.82 -1429.06 3052.8 -2189.89 3052.8C-2950.71 3052.8 -3569.69 2433.82 -3569.69 1673ZM-691.97 1040.12C-732.73 943.74 -783.17 850.8 -841.89 763.88C-900.03 677.84 -966.78 596.93 -1040.3 523.4C-1113.81 449.89 -1194.72 383.14 -1280.76 325.01C-1367.68 266.28 -1460.63 215.85 -1557 175.08C-1655.2 133.54 -1757.97 101.64 -1862.45 80.25C-1969.56 58.35 -2079.71 47.23 -2189.89 47.23C-2300.06 47.23 -2410.23 58.35 -2517.32 80.25C-2621.8 101.64 -2724.57 133.54 -2822.77 175.08C-2919.14 215.85 -3012.09 266.28 -3099.01 325.01C-3185.05 383.14 -3265.96 449.89 -3339.48 523.4C-3412.99 596.93 -3479.75 677.84 -3537.88 763.88C-3596.6 850.8 -3647.04 943.74 -3687.81 1040.12C-3729.35 1138.32 -3761.25 1241.09 -3782.63 1345.57C-3804.54 1452.66 -3815.65 1562.83 -3815.65 1673C-3815.65 1783.17 -3804.54 1893.34 -3782.63 2000.43C-3761.25 2104.91 -3729.35 2207.68 -3687.81 2305.88C-3647.04 2402.26 -3596.6 2495.2 -3537.88 2582.12C-3479.75 2668.16 -3412.99 2749.07 -3339.48 2822.6C-3265.96 2896.11 -3185.05 2962.86 -3099.01 3020.99C-3012.09 3079.72 -2919.14 3130.15 -2822.77 3170.92C-2724.57 3212.46 -2621.8 3244.36 -2517.32 3265.73C-2410.23 3287.65 -2300.06 3298.77 -2189.89 3298.77C-2079.71 3298.77 -1969.56 3287.65 -1862.45 3265.73C-1757.97 3244.36 -1655.2 3212.46 -1557 3170.92C-1460.63 3130.15 -1367.68 3079.72 -1280.76 3020.99C-1194.72 2962.86 -1113.81 2896.11 -1040.3 2822.6C-966.78 2749.07 -900.03 2668.16 -841.89 2582.12C-783.17 2495.2 -732.73 2402.26 -691.97 2305.88C-650.43 2207.68 -618.52 2104.91 -597.15 2000.43C-575.24 1893.34 -564.12 1783.17 -564.12 1673C-564.12 1562.83 -575.24 1452.66 -597.15 1345.57C-618.52 1241.09 -650.43 1138.32 -691.97 1040.12" id="amlI7cYud"></path><path d="M-2492.98 2420.89L-3078.09 1646.23L-2842.73 1468.46L-2470.79 1960.88L-1518.85 925.11L-1301.68 1124.71L-2492.98 2420.89" id="a4ijjuOnhO"></path><path d="M274.43 1673C274.43 912.18 893.41 293.2 1654.23 293.2C2415.06 293.2 3034.04 912.18 3034.04 1673C3034.04 2433.82 2415.06 3052.8 1654.23 3052.8C893.41 3052.8 274.43 2433.82 274.43 1673ZM3152.15 1040.12C3111.38 943.74 3060.95 850.8 3002.23 763.88C2944.09 677.84 2877.34 596.93 2803.83 523.4C2730.31 449.89 2649.4 383.14 2563.36 325.01C2476.43 266.28 2383.49 215.85 2287.12 175.08C2188.92 133.54 2086.14 101.64 1981.67 80.25C1874.57 58.35 1764.4 47.23 1654.23 47.23C1544.06 47.23 1433.89 58.35 1326.8 80.25C1222.32 101.64 1119.55 133.54 1021.35 175.08C924.98 215.85 832.03 266.28 745.11 325.01C659.07 383.14 578.16 449.89 504.64 523.4C431.13 596.93 364.38 677.84 306.24 763.88C247.51 850.8 197.08 943.74 156.31 1040.12C114.77 1138.32 82.87 1241.09 61.49 1345.57C39.58 1452.66 28.46 1562.83 28.46 1673C28.46 1783.17 39.58 1893.34 61.49 2000.43C82.87 2104.91 114.77 2207.68 156.31 2305.88C197.08 2402.26 247.51 2495.2 306.24 2582.12C364.38 2668.16 431.13 2749.07 504.64 2822.6C578.16 2896.11 659.07 2962.86 745.11 3020.99C832.03 3079.72 924.98 3130.15 1021.35 3170.92C1119.55 3212.46 1222.32 3244.36 1326.8 3265.73C1433.89 3287.65 1544.06 3298.77 1654.23 3298.77C1764.4 3298.77 1874.57 3287.65 1981.67 3265.73C2086.14 3244.36 2188.92 3212.46 2287.12 3170.92C2383.49 3130.15 2476.43 3079.72 2563.36 3020.99C2649.4 2962.86 2730.31 2896.11 2803.83 2822.6C2877.34 2749.07 2944.09 2668.16 3002.23 2582.12C3060.95 2495.2 3111.38 2402.26 3152.15 2305.88C3193.69 2207.68 3225.59 2104.91 3246.98 2000.43C3268.88 1893.34 3280 1783.17 3280 1673C3280 1562.83 3268.88 1452.66 3246.98 1345.57C3225.59 1241.09 3193.69 1138.32 3152.15 1040.12" id="b3wXT6PggP"></path><path d="M1654.23 1887.61L1083.62 2458.22L869.01 2243.61L1439.62 1673L869.01 1102.39L1083.62 887.78L1654.23 1458.39L2224.84 887.78L2439.45 1102.39L1868.84 1673L2439.45 2243.61L2224.84 2458.22L1654.23 1887.61" id="e3Ma7A9MY5"></path></defs><g><g><g><use xlink:href="#dtFPaNXgV" opacity="1" fill="#d8d8d8" fill-opacity="1"></use><g><use xlink:href="#dtFPaNXgV" opacity="1" fill-opacity="0" stroke="#000000" stroke-width="1" stroke-opacity="0"></use></g></g><g><use xlink:href="#amlI7cYud" opacity="1" fill="#f2f2f2" fill-opacity="1"></use><g><use xlink:href="#amlI7cYud" opacity="1" fill-opacity="0" stroke="#000000" stroke-width="1" stroke-opacity="0"></use></g></g><g><use xlink:href="#a4ijjuOnhO" opacity="1" fill="#75ea89" fill-opacity="1"></use><g><use xlink:href="#a4ijjuOnhO" opacity="1" fill-opacity="0" stroke="#000000" stroke-width="1" stroke-opacity="0"></use></g></g><g><use xlink:href="#b3wXT6PggP" opacity="1" fill="#f2f2f2" fill-opacity="1"></use><g><use xlink:href="#b3wXT6PggP" opacity="1" fill-opacity="0" stroke="#000000" stroke-width="1" stroke-opacity="0"></use></g></g><g><use xlink:href="#e3Ma7A9MY5" opacity="1" fill="#fc5656" fill-opacity="1"></use><g><use xlink:href="#e3Ma7A9MY5" opacity="1" fill-opacity="0" stroke="#000000" stroke-width="1" stroke-opacity="0"></use></g></g></g></g></svg>