<?xml version="1.0" encoding="UTF-8" standalone="no"?>
<!DOCTYPE svg PUBLIC "-//W3C//DTD SVG 1.1//EN" "http://www.w3.org/Graphics/SVG/1.1/DTD/svg11.dtd">
<svg version="1.1" xmlns="http://www.w3.org/2000/svg" xmlns:xlink="http://www.w3.org/1999/xlink" preserveAspectRatio="xMidYMid meet" viewBox="0 0 3300 3300" width="3300" height="3300"><defs><path d="M7484.1 3846L-514.76 3846L-514.76 -820L7484.1 -820L7484.1 3846" id="l1fE8mwtf6"></path><path d="M270.31 1653C270.31 892.18 889.29 273.2 1650.11 273.2C2410.94 273.2 3029.92 892.18 3029.92 1653C3029.92 2413.82 2410.94 3032.8 1650.11 3032.8C889.29 3032.8 270.31 2413.82 270.31 1653ZM3148.03 1020.12C3107.27 923.74 3056.83 830.8 2998.11 743.88C2939.97 657.84 2873.22 576.93 2799.7 503.4C2726.19 429.89 2645.28 363.14 2559.24 305.01C2472.32 246.28 2379.37 195.85 2283 155.08C2184.8 113.54 2082.03 81.64 1977.55 60.25C1870.44 38.35 1760.29 27.23 1650.11 27.23C1539.94 27.23 1429.77 38.35 1322.68 60.25C1218.2 81.64 1115.43 113.54 1017.23 155.08C920.86 195.85 827.91 246.28 740.99 305.01C654.95 363.14 574.04 429.89 500.52 503.4C427.01 576.93 360.25 657.84 302.12 743.88C243.4 830.8 192.96 923.74 152.19 1020.12C110.65 1118.32 78.75 1221.09 57.37 1325.57C35.46 1432.66 24.35 1542.83 24.35 1653C24.35 1763.17 35.46 1873.34 57.37 1980.43C78.75 2084.91 110.65 2187.68 152.19 2285.88C192.96 2382.26 243.4 2475.2 302.12 2562.12C360.25 2648.16 427.01 2729.07 500.52 2802.6C574.04 2876.11 654.95 2942.86 740.99 3000.99C827.91 3059.72 920.86 3110.15 1017.23 3150.92C1115.43 3192.46 1218.2 3224.36 1322.68 3245.73C1429.77 3267.65 1539.94 3278.77 1650.11 3278.77C1760.29 3278.77 1870.44 3267.65 1977.55 3245.73C2082.03 3224.36 2184.8 3192.46 2283 3150.92C2379.37 3110.15 2472.32 3059.72 2559.24 3000.99C2645.28 2942.86 2726.19 2876.11 2799.7 2802.6C2873.22 2729.07 2939.97 2648.16 2998.11 2562.12C3056.83 2475.2 3107.27 2382.26 3148.03 2285.88C3189.57 2187.68 3221.48 2084.91 3242.85 1980.43C3264.76 1873.34 3275.88 1763.17 3275.88 1653C3275.88 1542.83 3264.76 1432.66 3242.85 1325.57C3221.48 1221.09 3189.57 1118.32 3148.03 1020.12" id="a1Sf0dIky"></path><path d="M1347.02 2400.89L761.91 1626.23L997.27 1448.46L1369.21 1940.88L2321.15 905.11L2538.32 1104.71L1347.02 2400.89" id="b1pn5MXKkY"></path><path d="M4114.43 1653C4114.43 892.18 4733.41 273.2 5494.23 273.2C6255.06 273.2 6874.04 892.18 6874.04 1653C6874.04 2413.82 6255.06 3032.8 5494.23 3032.8C4733.41 3032.8 4114.43 2413.82 4114.43 1653ZM6992.15 1020.12C6951.38 923.74 6900.95 830.8 6842.23 743.88C6784.09 657.84 6717.34 576.93 6643.83 503.4C6570.31 429.89 6489.4 363.14 6403.36 305.01C6316.43 246.28 6223.49 195.85 6127.12 155.08C6028.92 113.54 5926.14 81.64 5821.67 60.25C5714.57 38.35 5604.4 27.23 5494.23 27.23C5384.06 27.23 5273.89 38.35 5166.8 60.25C5062.32 81.64 4959.55 113.54 4861.35 155.08C4764.98 195.85 4672.03 246.28 4585.11 305.01C4499.07 363.14 4418.16 429.89 4344.64 503.4C4271.13 576.93 4204.38 657.84 4146.24 743.88C4087.51 830.8 4037.08 923.74 3996.31 1020.12C3954.77 1118.32 3922.87 1221.09 3901.49 1325.57C3879.58 1432.66 3868.46 1542.83 3868.46 1653C3868.46 1763.17 3879.58 1873.34 3901.49 1980.43C3922.87 2084.91 3954.77 2187.68 3996.31 2285.88C4037.08 2382.26 4087.51 2475.2 4146.24 2562.12C4204.38 2648.16 4271.13 2729.07 4344.64 2802.6C4418.16 2876.11 4499.07 2942.86 4585.11 3000.99C4672.03 3059.72 4764.98 3110.15 4861.35 3150.92C4959.55 3192.46 5062.32 3224.36 5166.8 3245.73C5273.89 3267.65 5384.06 3278.77 5494.23 3278.77C5604.4 3278.77 5714.57 3267.65 5821.67 3245.73C5926.14 3224.36 6028.92 3192.46 6127.12 3150.92C6223.49 3110.15 6316.43 3059.72 6403.36 3000.99C6489.4 2942.86 6570.31 2876.11 6643.83 2802.6C6717.34 2729.07 6784.09 2648.16 6842.23 2562.12C6900.95 2475.2 6951.38 2382.26 6992.15 2285.88C7033.69 2187.68 7065.59 2084.91 7086.98 1980.43C7108.88 1873.34 7120 1763.17 7120 1653C7120 1542.83 7108.88 1432.66 7086.98 1325.57C7065.59 1221.09 7033.69 1118.32 6992.15 1020.12" id="b2uf4hEDQt"></path><path d="M5494.23 1867.61L4923.62 2438.22L4709.01 2223.61L5279.62 1653L4709.01 1082.39L4923.62 867.78L5494.23 1438.39L6064.84 867.78L6279.45 1082.39L5708.84 1653L6279.45 2223.61L6064.84 2438.22L5494.23 1867.61" id="gzhS1aDT1"></path></defs><g><g><g><use xlink:href="#l1fE8mwtf6" opacity="1" fill="#d8d8d8" fill-opacity="1"></use><g><use xlink:href="#l1fE8mwtf6" opacity="1" fill-opacity="0" stroke="#000000" stroke-width="1" stroke-opacity="0"></use></g></g><g><use xlink:href="#a1Sf0dIky" opacity="1" fill="#f2f2f2" fill-opacity="1"></use><g><use xlink:href="#a1Sf0dIky" opacity="1" fill-opacity="0" stroke="#000000" stroke-width="1" stroke-opacity="0"></use></g></g><g><use xlink:href="#b1pn5MXKkY" opacity="1" fill="#75ea89" fill-opacity="1"></use><g><use xlink:href="#b1pn5MXKkY" opacity="1" fill-opacity="0" stroke="#000000" stroke-width="1" stroke-opacity="0"></use></g></g><g><use xlink:href="#b2uf4hEDQt" opacity="1" fill="#f2f2f2" fill-opacity="1"></use><g><use xlink:href="#b2uf4hEDQt" opacity="1" fill-opacity="0" stroke="#000000" stroke-width="1" stroke-opacity="0"></use></g></g><g><use xlink:href="#gzhS1aDT1" opacity="1" fill="#fc5656" fill-opacity="1"></use><g><use xlink:href="#gzhS1aDT1" opacity="1" fill-opacity="0" stroke="#000000" stroke-width="1" stroke-opacity="0"></use></g></g></g></g></svg>